<svg width="132" height="20" viewBox="0 0 132 20" fill="none" xmlns="http://www.w3.org/2000/svg">
<path d="M9.99997 15.2167L4.12247 18.5067L5.43497 11.9L0.489136 7.32666L7.1783 6.53332L9.99997 0.416656L12.8216 6.53332L19.5108 7.32666L14.565 11.9L15.8775 18.5067L9.99997 15.2167Z" fill="#B4D2C6"/>
<path d="M38 15.2167L32.1225 18.5067L33.435 11.9L28.4891 7.32666L35.1783 6.53332L38 0.416656L40.8216 6.53332L47.5108 7.32666L42.565 11.9L43.8775 18.5067L38 15.2167Z" fill="#B4D2C6"/>
<path d="M66 15.2167L60.1225 18.5067L61.435 11.9L56.4891 7.32666L63.1783 6.53332L66 0.416656L68.8216 6.53332L75.5108 7.32666L70.565 11.9L71.8775 18.5067L66 15.2167Z" fill="#B4D2C6"/>
<path d="M94 15.2167L88.1225 18.5067L89.435 11.9L84.4891 7.32666L91.1783 6.53332L94 0.416656L96.8216 6.53332L103.511 7.32666L98.565 11.9L99.8775 18.5067L94 15.2167Z" fill="#B4D2C6"/>
<path d="M122 15.2167L116.122 18.5067L117.435 11.9L112.489 7.32666L119.178 6.53332L122 0.416656L124.822 6.53332L131.511 7.32666L126.565 11.9L127.877 18.5067L122 15.2167Z" fill="#B4D2C6"/>
</svg>
