<svg width="288" height="70" viewBox="0 0 288 70" fill="none" xmlns="http://www.w3.org/2000/svg">
<g clip-path="url(#clip0_1_323)">
<mask id="mask0_1_323" style="mask-type:alpha" maskUnits="userSpaceOnUse" x="0" y="0" width="288" height="70">
<rect width="288" height="70" fill="url(#paint0_radial_1_323)"/>
</mask>
<g mask="url(#mask0_1_323)">
<g opacity="0.7" clip-path="url(#clip1_1_323)">
<rect x="-0.25" y="-0.25" width="24.5" height="24.5" fill="#F9FAFC"/>
<rect x="-0.25" y="-0.25" width="24.5" height="24.5" fill="url(#paint1_radial_1_323)"/>
<rect x="-0.25" y="-0.25" width="24.5" height="24.5" stroke="#EAEAEA" stroke-width="0.5"/>
<rect x="23.75" y="-0.25" width="24.5" height="24.5" fill="#F9FAFC" stroke="#EAEAEA" stroke-width="0.5"/>
<rect x="47.75" y="-0.25" width="24.5" height="24.5" fill="#F9FAFC" stroke="#EAEAEA" stroke-width="0.5"/>
<rect x="71.75" y="-0.25" width="24.5" height="24.5" fill="#F9FAFC" stroke="#EAEAEA" stroke-width="0.5"/>
<rect x="95.75" y="-0.25" width="24.5" height="24.5" fill="#F9FAFC"/>
<rect x="95.75" y="-0.25" width="24.5" height="24.5" fill="url(#paint2_radial_1_323)"/>
<rect x="95.75" y="-0.25" width="24.5" height="24.5" stroke="#EAEAEA" stroke-width="0.5"/>
<rect x="119.75" y="-0.25" width="24.5" height="24.5" fill="#F9FAFC" stroke="#EAEAEA" stroke-width="0.5"/>
<rect x="143.75" y="-0.25" width="24.5" height="24.5" fill="#F9FAFC" stroke="#EAEAEA" stroke-width="0.5"/>
<rect x="167.75" y="-0.25" width="24.5" height="24.5" fill="#F9FAFC" stroke="#EAEAEA" stroke-width="0.5"/>
<rect x="191.75" y="-0.25" width="24.5" height="24.5" fill="#F9FAFC"/>
<rect x="191.75" y="-0.25" width="24.5" height="24.5" fill="url(#paint3_radial_1_323)"/>
<rect x="191.75" y="-0.25" width="24.5" height="24.5" stroke="#EAEAEA" stroke-width="0.5"/>
<rect x="215.75" y="-0.25" width="24.5" height="24.5" fill="#F9FAFC" stroke="#EAEAEA" stroke-width="0.5"/>
<rect x="239.75" y="-0.25" width="24.5" height="24.5" fill="#F9FAFC" stroke="#EAEAEA" stroke-width="0.5"/>
<rect x="263.75" y="-0.25" width="24.5" height="24.5" fill="#F9FAFC" stroke="#EAEAEA" stroke-width="0.5"/>
<rect x="-0.25" y="23.75" width="24.5" height="24.5" fill="#F9FAFC" stroke="#EAEAEA" stroke-width="0.5"/>
<rect x="23.75" y="23.75" width="24.5" height="24.5" fill="#F9FAFC" stroke="#EAEAEA" stroke-width="0.5"/>
<rect x="47.75" y="23.75" width="24.5" height="24.5" fill="#F9FAFC"/>
<rect x="47.75" y="23.75" width="24.5" height="24.5" fill="url(#paint4_radial_1_323)"/>
<rect x="47.75" y="23.75" width="24.5" height="24.5" stroke="#EAEAEA" stroke-width="0.5"/>
<rect x="71.75" y="23.75" width="24.5" height="24.5" fill="#F9FAFC" stroke="#EAEAEA" stroke-width="0.5"/>
<rect x="95.75" y="23.75" width="24.5" height="24.5" fill="#F9FAFC" stroke="#EAEAEA" stroke-width="0.5"/>
<rect x="119.75" y="23.75" width="24.5" height="24.5" fill="#F9FAFC" stroke="#EAEAEA" stroke-width="0.5"/>
<rect x="143.75" y="23.75" width="24.5" height="24.5" fill="#F9FAFC" stroke="#EAEAEA" stroke-width="0.5"/>
<rect x="167.75" y="23.75" width="24.5" height="24.5" fill="#F9FAFC" stroke="#EAEAEA" stroke-width="0.5"/>
<rect x="191.75" y="23.75" width="24.5" height="24.5" fill="#F9FAFC" stroke="#EAEAEA" stroke-width="0.5"/>
<rect x="215.75" y="23.75" width="24.5" height="24.5" fill="#F9FAFC" stroke="#EAEAEA" stroke-width="0.5"/>
<rect x="239.75" y="23.75" width="24.5" height="24.5" fill="#F9FAFC" stroke="#EAEAEA" stroke-width="0.5"/>
<rect x="263.75" y="23.75" width="24.5" height="24.5" fill="#F9FAFC" stroke="#EAEAEA" stroke-width="0.5"/>
<rect x="-0.25" y="47.75" width="24.5" height="24.5" fill="#F9FAFC"/>
<rect x="-0.25" y="47.75" width="24.5" height="24.5" fill="url(#paint5_radial_1_323)"/>
<rect x="-0.25" y="47.75" width="24.5" height="24.5" stroke="#EAEAEA" stroke-width="0.5"/>
<rect x="23.75" y="47.75" width="24.5" height="24.5" fill="#F9FAFC" stroke="#EAEAEA" stroke-width="0.5"/>
<rect x="47.75" y="47.75" width="24.5" height="24.5" fill="#F9FAFC" stroke="#EAEAEA" stroke-width="0.5"/>
<rect x="71.75" y="47.75" width="24.5" height="24.5" fill="#F9FAFC" stroke="#EAEAEA" stroke-width="0.5"/>
<rect x="95.75" y="47.75" width="24.5" height="24.5" fill="#F9FAFC"/>
<rect x="95.75" y="47.75" width="24.5" height="24.5" fill="url(#paint6_radial_1_323)"/>
<rect x="95.75" y="47.75" width="24.5" height="24.5" stroke="#EAEAEA" stroke-width="0.5"/>
<rect x="119.75" y="47.75" width="24.5" height="24.5" fill="#F9FAFC" stroke="#EAEAEA" stroke-width="0.5"/>
<rect x="143.75" y="47.75" width="24.5" height="24.5" fill="#F9FAFC" stroke="#EAEAEA" stroke-width="0.5"/>
<rect x="167.75" y="47.75" width="24.5" height="24.5" fill="#F9FAFC"/>
<rect x="167.75" y="47.75" width="24.5" height="24.5" fill="#137547" fill-opacity="0.05"/>
<rect x="167.75" y="47.75" width="24.5" height="24.5" stroke="#EAEAEA" stroke-width="0.5"/>
<rect x="191.75" y="47.75" width="24.5" height="24.5" fill="#F9FAFC" stroke="#EAEAEA" stroke-width="0.5"/>
<rect x="215.75" y="47.75" width="24.5" height="24.5" fill="#F9FAFC" stroke="#EAEAEA" stroke-width="0.5"/>
<rect x="239.75" y="47.75" width="24.5" height="24.5" fill="#F9FAFC" stroke="#EAEAEA" stroke-width="0.5"/>
<rect x="263.75" y="47.75" width="24.5" height="24.5" fill="#F9FAFC" stroke="#EAEAEA" stroke-width="0.5"/>
</g>
</g>
</g>
<defs>
<radialGradient id="paint0_radial_1_323" cx="0" cy="0" r="1" gradientUnits="userSpaceOnUse" gradientTransform="translate(8.17919e-06 35) scale(291 107.551)">
<stop offset="0.402951" stop-color="#D9D9D9"/>
<stop offset="1" stop-color="#D9D9D9" stop-opacity="0"/>
</radialGradient>
<radialGradient id="paint1_radial_1_323" cx="0" cy="0" r="1" gradientUnits="userSpaceOnUse" gradientTransform="rotate(45) scale(33.9411)">
<stop stop-color="#37B16F" stop-opacity="0.15"/>
<stop offset="1" stop-color="#37B16F" stop-opacity="0"/>
</radialGradient>
<radialGradient id="paint2_radial_1_323" cx="0" cy="0" r="1" gradientUnits="userSpaceOnUse" gradientTransform="translate(96) rotate(45) scale(33.9411)">
<stop stop-color="#37B16F" stop-opacity="0.15"/>
<stop offset="1" stop-color="#37B16F" stop-opacity="0"/>
</radialGradient>
<radialGradient id="paint3_radial_1_323" cx="0" cy="0" r="1" gradientUnits="userSpaceOnUse" gradientTransform="translate(192) rotate(45) scale(33.9411)">
<stop stop-color="#37B16F" stop-opacity="0.15"/>
<stop offset="1" stop-color="#37B16F" stop-opacity="0"/>
</radialGradient>
<radialGradient id="paint4_radial_1_323" cx="0" cy="0" r="1" gradientUnits="userSpaceOnUse" gradientTransform="translate(48 24) rotate(45) scale(33.9411)">
<stop stop-color="#37B16F" stop-opacity="0.15"/>
<stop offset="1" stop-color="#37B16F" stop-opacity="0"/>
</radialGradient>
<radialGradient id="paint5_radial_1_323" cx="0" cy="0" r="1" gradientUnits="userSpaceOnUse" gradientTransform="translate(0 48) rotate(45) scale(33.9411)">
<stop stop-color="#37B16F" stop-opacity="0.15"/>
<stop offset="1" stop-color="#37B16F" stop-opacity="0"/>
</radialGradient>
<radialGradient id="paint6_radial_1_323" cx="0" cy="0" r="1" gradientUnits="userSpaceOnUse" gradientTransform="translate(96 48) rotate(45) scale(33.9411)">
<stop stop-color="#37B16F" stop-opacity="0.15"/>
<stop offset="1" stop-color="#37B16F" stop-opacity="0"/>
</radialGradient>
<clipPath id="clip0_1_323">
<rect width="288" height="70" fill="white"/>
</clipPath>
<clipPath id="clip1_1_323">
<rect width="288" height="72" fill="white"/>
</clipPath>
</defs>
</svg>
