<svg width="1440" height="370" viewBox="0 0 1440 370" fill="none" xmlns="http://www.w3.org/2000/svg">
<mask id="mask0_1_367" style="mask-type:alpha" maskUnits="userSpaceOnUse" x="0" y="0" width="1440" height="512">
<rect x="1440" y="512" width="1440" height="512" transform="rotate(-180 1440 512)" fill="url(#paint0_linear_1_367)"/>
</mask>
<g mask="url(#mask0_1_367)">
<g opacity="0.7" clip-path="url(#clip0_1_367)">
<rect x="1440.25" y="384.25" width="64.5" height="64.5" transform="rotate(-180 1440.25 384.25)" fill="#F9FAFC"/>
<rect x="1440.25" y="384.25" width="64.5" height="64.5" transform="rotate(-180 1440.25 384.25)" fill="#137547" fill-opacity="0.05"/>
<rect x="1440.25" y="384.25" width="64.5" height="64.5" transform="rotate(-180 1440.25 384.25)" stroke="#EAEAEA" stroke-width="0.5"/>
<rect x="1376.25" y="384.25" width="64.5" height="64.5" transform="rotate(-180 1376.25 384.25)" fill="#F9FAFC" stroke="#EAEAEA" stroke-width="0.5"/>
<rect x="1312.25" y="384.25" width="64.5" height="64.5" transform="rotate(-180 1312.25 384.25)" fill="#F9FAFC" stroke="#EAEAEA" stroke-width="0.5"/>
<rect x="1248.25" y="384.25" width="64.5" height="64.5" transform="rotate(-180 1248.25 384.25)" fill="#F9FAFC" stroke="#EAEAEA" stroke-width="0.5"/>
<rect x="1184.25" y="384.25" width="64.5" height="64.5" transform="rotate(-180 1184.25 384.25)" fill="#F9FAFC" stroke="#EAEAEA" stroke-width="0.5"/>
<rect x="1120.25" y="384.25" width="64.5" height="64.5" transform="rotate(-180 1120.25 384.25)" fill="#F9FAFC" stroke="#EAEAEA" stroke-width="0.5"/>
<rect x="1056.25" y="384.25" width="64.5" height="64.5" transform="rotate(-180 1056.25 384.25)" fill="#F9FAFC" stroke="#EAEAEA" stroke-width="0.5"/>
<rect x="992.25" y="384.25" width="64.5" height="64.5" transform="rotate(-180 992.25 384.25)" fill="#F9FAFC" stroke="#EAEAEA" stroke-width="0.5"/>
<rect x="928.25" y="384.25" width="64.5" height="64.5" transform="rotate(-180 928.25 384.25)" fill="#F9FAFC" stroke="#EAEAEA" stroke-width="0.5"/>
<rect x="864.25" y="384.25" width="64.5" height="64.5" transform="rotate(-180 864.25 384.25)" fill="#F9FAFC" stroke="#EAEAEA" stroke-width="0.5"/>
<rect x="800.25" y="384.25" width="64.5" height="64.5" transform="rotate(-180 800.25 384.25)" fill="#F9FAFC" stroke="#EAEAEA" stroke-width="0.5"/>
<rect x="736.25" y="384.25" width="64.5" height="64.5" transform="rotate(-180 736.25 384.25)" fill="#F9FAFC" stroke="#EAEAEA" stroke-width="0.5"/>
<rect x="672.25" y="384.25" width="64.5" height="64.5" transform="rotate(-180 672.25 384.25)" fill="#F9FAFC" stroke="#EAEAEA" stroke-width="0.5"/>
<rect x="608.25" y="384.25" width="64.5" height="64.5" transform="rotate(-180 608.25 384.25)" fill="#F9FAFC" stroke="#EAEAEA" stroke-width="0.5"/>
<rect x="544.25" y="384.25" width="64.5" height="64.5" transform="rotate(-180 544.25 384.25)" fill="#F9FAFC" stroke="#EAEAEA" stroke-width="0.5"/>
<rect x="480.25" y="384.25" width="64.5" height="64.5" transform="rotate(-180 480.25 384.25)" fill="#F9FAFC" stroke="#EAEAEA" stroke-width="0.5"/>
<rect x="416.25" y="384.25" width="64.5" height="64.5" transform="rotate(-180 416.25 384.25)" fill="#F9FAFC" stroke="#EAEAEA" stroke-width="0.5"/>
<rect x="352.25" y="384.25" width="64.5" height="64.5" transform="rotate(-180 352.25 384.25)" fill="#F9FAFC" stroke="#EAEAEA" stroke-width="0.5"/>
<rect x="288.25" y="384.25" width="64.5" height="64.5" transform="rotate(-180 288.25 384.25)" fill="#F9FAFC"/>
<rect x="288.25" y="384.25" width="64.5" height="64.5" transform="rotate(-180 288.25 384.25)" fill="#137547" fill-opacity="0.05"/>
<rect x="288.25" y="384.25" width="64.5" height="64.5" transform="rotate(-180 288.25 384.25)" stroke="#EAEAEA" stroke-width="0.5"/>
<rect x="224.25" y="384.25" width="64.5" height="64.5" transform="rotate(-180 224.25 384.25)" fill="#F9FAFC" stroke="#EAEAEA" stroke-width="0.5"/>
<rect x="160.25" y="384.25" width="64.5" height="64.5" transform="rotate(-180 160.25 384.25)" fill="#F9FAFC" stroke="#EAEAEA" stroke-width="0.5"/>
<rect x="96.25" y="384.25" width="64.5" height="64.5" transform="rotate(-180 96.25 384.25)" fill="#F9FAFC" stroke="#EAEAEA" stroke-width="0.5"/>
<rect x="32.25" y="384.25" width="64.5" height="64.5" transform="rotate(-180 32.25 384.25)" fill="#F9FAFC" stroke="#EAEAEA" stroke-width="0.5"/>
<rect x="1440.25" y="320.25" width="64.5" height="64.5" transform="rotate(-180 1440.25 320.25)" fill="#F9FAFC" stroke="#EAEAEA" stroke-width="0.5"/>
<rect x="1376.25" y="320.25" width="64.5" height="64.5" transform="rotate(-180 1376.25 320.25)" fill="#F9FAFC" stroke="#EAEAEA" stroke-width="0.5"/>
<rect x="1312.25" y="320.25" width="64.5" height="64.5" transform="rotate(-180 1312.25 320.25)" fill="#F9FAFC" stroke="#EAEAEA" stroke-width="0.5"/>
<rect x="1248.25" y="320.25" width="64.5" height="64.5" transform="rotate(-180 1248.25 320.25)" fill="#F9FAFC"/>
<rect x="1248.25" y="320.25" width="64.5" height="64.5" transform="rotate(-180 1248.25 320.25)" fill="url(#paint1_radial_1_367)"/>
<rect x="1248.25" y="320.25" width="64.5" height="64.5" transform="rotate(-180 1248.25 320.25)" stroke="#EAEAEA" stroke-width="0.5"/>
<rect x="1184.25" y="320.25" width="64.5" height="64.5" transform="rotate(-180 1184.25 320.25)" fill="#F9FAFC" stroke="#EAEAEA" stroke-width="0.5"/>
<rect x="1120.25" y="320.25" width="64.5" height="64.5" transform="rotate(-180 1120.25 320.25)" fill="#F9FAFC" stroke="#EAEAEA" stroke-width="0.5"/>
<rect x="1056.25" y="320.25" width="64.5" height="64.5" transform="rotate(-180 1056.25 320.25)" fill="#F9FAFC" stroke="#EAEAEA" stroke-width="0.5"/>
<rect x="992.25" y="320.25" width="64.5" height="64.5" transform="rotate(-180 992.25 320.25)" fill="#F9FAFC" stroke="#EAEAEA" stroke-width="0.5"/>
<rect x="928.25" y="320.25" width="64.5" height="64.5" transform="rotate(-180 928.25 320.25)" fill="#F9FAFC" stroke="#EAEAEA" stroke-width="0.5"/>
<rect x="864.25" y="320.25" width="64.5" height="64.5" transform="rotate(-180 864.25 320.25)" fill="#F9FAFC" stroke="#EAEAEA" stroke-width="0.5"/>
<rect x="800.25" y="320.25" width="64.5" height="64.5" transform="rotate(-180 800.25 320.25)" fill="#F9FAFC" stroke="#EAEAEA" stroke-width="0.5"/>
<rect x="736.25" y="320.25" width="64.5" height="64.5" transform="rotate(-180 736.25 320.25)" fill="#F9FAFC" stroke="#EAEAEA" stroke-width="0.5"/>
<rect x="672.25" y="320.25" width="64.5" height="64.5" transform="rotate(-180 672.25 320.25)" fill="#F9FAFC" stroke="#EAEAEA" stroke-width="0.5"/>
<rect x="608.25" y="320.25" width="64.5" height="64.5" transform="rotate(-180 608.25 320.25)" fill="#F9FAFC"/>
<rect x="608.25" y="320.25" width="64.5" height="64.5" transform="rotate(-180 608.25 320.25)" fill="#137547" fill-opacity="0.05"/>
<rect x="608.25" y="320.25" width="64.5" height="64.5" transform="rotate(-180 608.25 320.25)" stroke="#EAEAEA" stroke-width="0.5"/>
<rect x="544.25" y="320.25" width="64.5" height="64.5" transform="rotate(-180 544.25 320.25)" fill="#F9FAFC" stroke="#EAEAEA" stroke-width="0.5"/>
<rect x="480.25" y="320.25" width="64.5" height="64.5" transform="rotate(-180 480.25 320.25)" fill="#F9FAFC" stroke="#EAEAEA" stroke-width="0.5"/>
<rect x="416.25" y="320.25" width="64.5" height="64.5" transform="rotate(-180 416.25 320.25)" fill="#F9FAFC"/>
<rect x="416.25" y="320.25" width="64.5" height="64.5" transform="rotate(-180 416.25 320.25)" fill="url(#paint2_radial_1_367)"/>
<rect x="416.25" y="320.25" width="64.5" height="64.5" transform="rotate(-180 416.25 320.25)" stroke="#EAEAEA" stroke-width="0.5"/>
<rect x="352.25" y="320.25" width="64.5" height="64.5" transform="rotate(-180 352.25 320.25)" fill="#F9FAFC" stroke="#EAEAEA" stroke-width="0.5"/>
<rect x="288.25" y="320.25" width="64.5" height="64.5" transform="rotate(-180 288.25 320.25)" fill="#F9FAFC" stroke="#EAEAEA" stroke-width="0.5"/>
<rect x="224.25" y="320.25" width="64.5" height="64.5" transform="rotate(-180 224.25 320.25)" fill="#F9FAFC" stroke="#EAEAEA" stroke-width="0.5"/>
<rect x="160.25" y="320.25" width="64.5" height="64.5" transform="rotate(-180 160.25 320.25)" fill="#F9FAFC" stroke="#EAEAEA" stroke-width="0.5"/>
<rect x="96.25" y="320.25" width="64.5" height="64.5" transform="rotate(-180 96.25 320.25)" fill="#F9FAFC" stroke="#EAEAEA" stroke-width="0.5"/>
<rect x="32.25" y="320.25" width="64.5" height="64.5" transform="rotate(-180 32.25 320.25)" fill="#F9FAFC"/>
<rect x="32.25" y="320.25" width="64.5" height="64.5" transform="rotate(-180 32.25 320.25)" fill="url(#paint3_radial_1_367)"/>
<rect x="32.25" y="320.25" width="64.5" height="64.5" transform="rotate(-180 32.25 320.25)" stroke="#EAEAEA" stroke-width="0.5"/>
<rect x="1440.25" y="256.25" width="64.5" height="64.5" transform="rotate(-180 1440.25 256.25)" fill="#F9FAFC" stroke="#EAEAEA" stroke-width="0.5"/>
<rect x="1376.25" y="256.25" width="64.5" height="64.5" transform="rotate(-180 1376.25 256.25)" fill="#F9FAFC" stroke="#EAEAEA" stroke-width="0.5"/>
<rect x="1312.25" y="256.25" width="64.5" height="64.5" transform="rotate(-180 1312.25 256.25)" fill="#F9FAFC" stroke="#EAEAEA" stroke-width="0.5"/>
<rect x="1248.25" y="256.25" width="64.5" height="64.5" transform="rotate(-180 1248.25 256.25)" fill="#F9FAFC" stroke="#EAEAEA" stroke-width="0.5"/>
<rect x="1184.25" y="256.25" width="64.5" height="64.5" transform="rotate(-180 1184.25 256.25)" fill="#F9FAFC" stroke="#EAEAEA" stroke-width="0.5"/>
<rect x="1120.25" y="256.25" width="64.5" height="64.5" transform="rotate(-180 1120.25 256.25)" fill="#F9FAFC" stroke="#EAEAEA" stroke-width="0.5"/>
<rect x="1056.25" y="256.25" width="64.5" height="64.5" transform="rotate(-180 1056.25 256.25)" fill="#F9FAFC" stroke="#EAEAEA" stroke-width="0.5"/>
<rect x="992.25" y="256.25" width="64.5" height="64.5" transform="rotate(-180 992.25 256.25)" fill="#F9FAFC" stroke="#EAEAEA" stroke-width="0.5"/>
<rect x="928.25" y="256.25" width="64.5" height="64.5" transform="rotate(-180 928.25 256.25)" fill="#F9FAFC" stroke="#EAEAEA" stroke-width="0.5"/>
<rect x="864.25" y="256.25" width="64.5" height="64.5" transform="rotate(-180 864.25 256.25)" fill="#F9FAFC" stroke="#EAEAEA" stroke-width="0.5"/>
<rect x="800.25" y="256.25" width="64.5" height="64.5" transform="rotate(-180 800.25 256.25)" fill="#F9FAFC" stroke="#EAEAEA" stroke-width="0.5"/>
<rect x="736.25" y="256.25" width="64.5" height="64.5" transform="rotate(-180 736.25 256.25)" fill="#F9FAFC" stroke="#EAEAEA" stroke-width="0.5"/>
<rect x="672.25" y="256.25" width="64.5" height="64.5" transform="rotate(-180 672.25 256.25)" fill="#F9FAFC" stroke="#EAEAEA" stroke-width="0.5"/>
<rect x="608.25" y="256.25" width="64.5" height="64.5" transform="rotate(-180 608.25 256.25)" fill="#F9FAFC" stroke="#EAEAEA" stroke-width="0.5"/>
<rect x="544.25" y="256.25" width="64.5" height="64.5" transform="rotate(-180 544.25 256.25)" fill="#F9FAFC" stroke="#EAEAEA" stroke-width="0.5"/>
<rect x="480.25" y="256.25" width="64.5" height="64.5" transform="rotate(-180 480.25 256.25)" fill="#F9FAFC" stroke="#EAEAEA" stroke-width="0.5"/>
<rect x="416.25" y="256.25" width="64.5" height="64.5" transform="rotate(-180 416.25 256.25)" fill="#F9FAFC" stroke="#EAEAEA" stroke-width="0.5"/>
<rect x="352.25" y="256.25" width="64.5" height="64.5" transform="rotate(-180 352.25 256.25)" fill="#F9FAFC" stroke="#EAEAEA" stroke-width="0.5"/>
<rect x="288.25" y="256.25" width="64.5" height="64.5" transform="rotate(-180 288.25 256.25)" fill="#F9FAFC" stroke="#EAEAEA" stroke-width="0.5"/>
<rect x="224.25" y="256.25" width="64.5" height="64.5" transform="rotate(-180 224.25 256.25)" fill="#F9FAFC" stroke="#EAEAEA" stroke-width="0.5"/>
<rect x="1440.25" y="192.25" width="64.5" height="64.5" transform="rotate(-180 1440.25 192.25)" fill="#F9FAFC" stroke="#EAEAEA" stroke-width="0.5"/>
<rect x="1376.25" y="192.25" width="64.5" height="64.5" transform="rotate(-180 1376.25 192.25)" fill="#F9FAFC" stroke="#EAEAEA" stroke-width="0.5"/>
<rect x="1312.25" y="192.25" width="64.5" height="64.5" transform="rotate(-180 1312.25 192.25)" fill="#F9FAFC"/>
<rect x="1312.25" y="192.25" width="64.5" height="64.5" transform="rotate(-180 1312.25 192.25)" fill="url(#paint4_radial_1_367)"/>
<rect x="1312.25" y="192.25" width="64.5" height="64.5" transform="rotate(-180 1312.25 192.25)" stroke="#EAEAEA" stroke-width="0.5"/>
<rect x="1248.25" y="192.25" width="64.5" height="64.5" transform="rotate(-180 1248.25 192.25)" fill="#F9FAFC" stroke="#EAEAEA" stroke-width="0.5"/>
<rect x="1184.25" y="192.25" width="64.5" height="64.5" transform="rotate(-180 1184.25 192.25)" fill="#F9FAFC" stroke="#EAEAEA" stroke-width="0.5"/>
<rect x="1120.25" y="192.25" width="64.5" height="64.5" transform="rotate(-180 1120.25 192.25)" fill="#F9FAFC" stroke="#EAEAEA" stroke-width="0.5"/>
<rect x="1056.25" y="192.25" width="64.5" height="64.5" transform="rotate(-180 1056.25 192.25)" fill="#F9FAFC" stroke="#EAEAEA" stroke-width="0.5"/>
<rect x="992.25" y="192.25" width="64.5" height="64.5" transform="rotate(-180 992.25 192.25)" fill="#F9FAFC" stroke="#EAEAEA" stroke-width="0.5"/>
<rect x="928.25" y="192.25" width="64.5" height="64.5" transform="rotate(-180 928.25 192.25)" fill="#F9FAFC" stroke="#EAEAEA" stroke-width="0.5"/>
<rect x="864.25" y="192.25" width="64.5" height="64.5" transform="rotate(-180 864.25 192.25)" fill="#F9FAFC" stroke="#EAEAEA" stroke-width="0.5"/>
<rect x="800.25" y="192.25" width="64.5" height="64.5" transform="rotate(-180 800.25 192.25)" fill="#F9FAFC" stroke="#EAEAEA" stroke-width="0.5"/>
<rect x="736.25" y="192.25" width="64.5" height="64.5" transform="rotate(-180 736.25 192.25)" fill="#F9FAFC" stroke="#EAEAEA" stroke-width="0.5"/>
<rect x="672.25" y="192.25" width="64.5" height="64.5" transform="rotate(-180 672.25 192.25)" fill="#F9FAFC" stroke="#EAEAEA" stroke-width="0.5"/>
<rect x="608.25" y="192.25" width="64.5" height="64.5" transform="rotate(-180 608.25 192.25)" fill="#F9FAFC" stroke="#EAEAEA" stroke-width="0.5"/>
<rect x="544.25" y="192.25" width="64.5" height="64.5" transform="rotate(-180 544.25 192.25)" fill="#F9FAFC" stroke="#EAEAEA" stroke-width="0.5"/>
<rect x="480.25" y="192.25" width="64.5" height="64.5" transform="rotate(-180 480.25 192.25)" fill="#F9FAFC" stroke="#EAEAEA" stroke-width="0.5"/>
<rect x="416.25" y="192.25" width="64.5" height="64.5" transform="rotate(-180 416.25 192.25)" fill="#F9FAFC" stroke="#EAEAEA" stroke-width="0.5"/>
<rect x="352.25" y="192.25" width="64.5" height="64.5" transform="rotate(-180 352.25 192.25)" fill="#F9FAFC" stroke="#EAEAEA" stroke-width="0.5"/>
<rect x="288.25" y="192.25" width="64.5" height="64.5" transform="rotate(-180 288.25 192.25)" fill="#F9FAFC" stroke="#EAEAEA" stroke-width="0.5"/>
<rect x="224.25" y="192.25" width="64.5" height="64.5" transform="rotate(-180 224.25 192.25)" fill="#F9FAFC" stroke="#EAEAEA" stroke-width="0.5"/>
<rect x="160.25" y="192.25" width="64.5" height="64.5" transform="rotate(-180 160.25 192.25)" fill="#F9FAFC"/>
<rect x="160.25" y="192.25" width="64.5" height="64.5" transform="rotate(-180 160.25 192.25)" fill="#137547" fill-opacity="0.05"/>
<rect x="160.25" y="192.25" width="64.5" height="64.5" transform="rotate(-180 160.25 192.25)" stroke="#EAEAEA" stroke-width="0.5"/>
<rect x="96.25" y="192.25" width="64.5" height="64.5" transform="rotate(-180 96.25 192.25)" fill="#F9FAFC" stroke="#EAEAEA" stroke-width="0.5"/>
<rect x="32.25" y="192.25" width="64.5" height="64.5" transform="rotate(-180 32.25 192.25)" fill="#F9FAFC" stroke="#EAEAEA" stroke-width="0.5"/>
<rect x="1440.25" y="128.25" width="64.5" height="64.5" transform="rotate(-180 1440.25 128.25)" fill="#F9FAFC"/>
<rect x="1440.25" y="128.25" width="64.5" height="64.5" transform="rotate(-180 1440.25 128.25)" fill="#137547" fill-opacity="0.05"/>
<rect x="1440.25" y="128.25" width="64.5" height="64.5" transform="rotate(-180 1440.25 128.25)" stroke="#EAEAEA" stroke-width="0.5"/>
<rect x="1376.25" y="128.25" width="64.5" height="64.5" transform="rotate(-180 1376.25 128.25)" fill="#F9FAFC" stroke="#EAEAEA" stroke-width="0.5"/>
<rect x="1312.25" y="128.25" width="64.5" height="64.5" transform="rotate(-180 1312.25 128.25)" fill="#F9FAFC" stroke="#EAEAEA" stroke-width="0.5"/>
<rect x="1248.25" y="128.25" width="64.5" height="64.5" transform="rotate(-180 1248.25 128.25)" fill="#F9FAFC" stroke="#EAEAEA" stroke-width="0.5"/>
<rect x="1184.25" y="128.25" width="64.5" height="64.5" transform="rotate(-180 1184.25 128.25)" fill="#F9FAFC" stroke="#EAEAEA" stroke-width="0.5"/>
<rect x="1120.25" y="128.25" width="64.5" height="64.5" transform="rotate(-180 1120.25 128.25)" fill="#F9FAFC" stroke="#EAEAEA" stroke-width="0.5"/>
<rect x="1056.25" y="128.25" width="64.5" height="64.5" transform="rotate(-180 1056.25 128.25)" fill="#F9FAFC" stroke="#EAEAEA" stroke-width="0.5"/>
<rect x="992.25" y="128.25" width="64.5" height="64.5" transform="rotate(-180 992.25 128.25)" fill="#F9FAFC" stroke="#EAEAEA" stroke-width="0.5"/>
<rect x="928.25" y="128.25" width="64.5" height="64.5" transform="rotate(-180 928.25 128.25)" fill="#F9FAFC"/>
<rect x="928.25" y="128.25" width="64.5" height="64.5" transform="rotate(-180 928.25 128.25)" fill="url(#paint5_radial_1_367)"/>
<rect x="928.25" y="128.25" width="64.5" height="64.5" transform="rotate(-180 928.25 128.25)" stroke="#EAEAEA" stroke-width="0.5"/>
<rect x="864.25" y="128.25" width="64.5" height="64.5" transform="rotate(-180 864.25 128.25)" fill="#F9FAFC" stroke="#EAEAEA" stroke-width="0.5"/>
<rect x="800.25" y="128.25" width="64.5" height="64.5" transform="rotate(-180 800.25 128.25)" fill="#F9FAFC" stroke="#EAEAEA" stroke-width="0.5"/>
<rect x="736.25" y="128.25" width="64.5" height="64.5" transform="rotate(-180 736.25 128.25)" fill="#F9FAFC" stroke="#EAEAEA" stroke-width="0.5"/>
<rect x="672.25" y="128.25" width="64.5" height="64.5" transform="rotate(-180 672.25 128.25)" fill="#F9FAFC" stroke="#EAEAEA" stroke-width="0.5"/>
<rect x="608.25" y="128.25" width="64.5" height="64.5" transform="rotate(-180 608.25 128.25)" fill="#F9FAFC" stroke="#EAEAEA" stroke-width="0.5"/>
<rect x="544.25" y="128.25" width="64.5" height="64.5" transform="rotate(-180 544.25 128.25)" fill="#F9FAFC" stroke="#EAEAEA" stroke-width="0.5"/>
<rect x="480.25" y="128.25" width="64.5" height="64.5" transform="rotate(-180 480.25 128.25)" fill="#F9FAFC" stroke="#EAEAEA" stroke-width="0.5"/>
<rect x="416.25" y="128.25" width="64.5" height="64.5" transform="rotate(-180 416.25 128.25)" fill="#F9FAFC" stroke="#EAEAEA" stroke-width="0.5"/>
<rect x="352.25" y="128.25" width="64.5" height="64.5" transform="rotate(-180 352.25 128.25)" fill="#F9FAFC" stroke="#EAEAEA" stroke-width="0.5"/>
<rect x="288.25" y="128.25" width="64.5" height="64.5" transform="rotate(-180 288.25 128.25)" fill="#F9FAFC" stroke="#EAEAEA" stroke-width="0.5"/>
<rect x="224.25" y="128.25" width="64.5" height="64.5" transform="rotate(-180 224.25 128.25)" fill="#F9FAFC" stroke="#EAEAEA" stroke-width="0.5"/>
<rect x="160.25" y="128.25" width="64.5" height="64.5" transform="rotate(-180 160.25 128.25)" fill="#F9FAFC" stroke="#EAEAEA" stroke-width="0.5"/>
<rect x="96.25" y="128.25" width="64.5" height="64.5" transform="rotate(-180 96.25 128.25)" fill="#F9FAFC"/>
<rect x="96.25" y="128.25" width="64.5" height="64.5" transform="rotate(-180 96.25 128.25)" fill="url(#paint6_radial_1_367)"/>
<rect x="96.25" y="128.25" width="64.5" height="64.5" transform="rotate(-180 96.25 128.25)" stroke="#EAEAEA" stroke-width="0.5"/>
<rect x="32.25" y="128.25" width="64.5" height="64.5" transform="rotate(-180 32.25 128.25)" fill="#F9FAFC" stroke="#EAEAEA" stroke-width="0.5"/>
<rect x="1440.25" y="64.25" width="64.5" height="64.5" transform="rotate(-180 1440.25 64.25)" fill="#F9FAFC" stroke="#EAEAEA" stroke-width="0.5"/>
<rect x="1376.25" y="64.25" width="64.5" height="64.5" transform="rotate(-180 1376.25 64.25)" fill="#F9FAFC" stroke="#EAEAEA" stroke-width="0.5"/>
<rect x="1312.25" y="64.25" width="64.5" height="64.5" transform="rotate(-180 1312.25 64.25)" fill="#F9FAFC" stroke="#EAEAEA" stroke-width="0.5"/>
<rect x="1248.25" y="64.25" width="64.5" height="64.5" transform="rotate(-180 1248.25 64.25)" fill="#F9FAFC" stroke="#EAEAEA" stroke-width="0.5"/>
<rect x="1184.25" y="64.25" width="64.5" height="64.5" transform="rotate(-180 1184.25 64.25)" fill="#F9FAFC" stroke="#EAEAEA" stroke-width="0.5"/>
<rect x="1120.25" y="64.25" width="64.5" height="64.5" transform="rotate(-180 1120.25 64.25)" fill="#F9FAFC" stroke="#EAEAEA" stroke-width="0.5"/>
<rect x="1056.25" y="64.25" width="64.5" height="64.5" transform="rotate(-180 1056.25 64.25)" fill="#F9FAFC" stroke="#EAEAEA" stroke-width="0.5"/>
<rect x="992.25" y="64.25" width="64.5" height="64.5" transform="rotate(-180 992.25 64.25)" fill="#F9FAFC" stroke="#EAEAEA" stroke-width="0.5"/>
<rect x="928.25" y="64.25" width="64.5" height="64.5" transform="rotate(-180 928.25 64.25)" fill="#F9FAFC" stroke="#EAEAEA" stroke-width="0.5"/>
<rect x="864.25" y="64.25" width="64.5" height="64.5" transform="rotate(-180 864.25 64.25)" fill="#F9FAFC" stroke="#EAEAEA" stroke-width="0.5"/>
<rect x="800.25" y="64.25" width="64.5" height="64.5" transform="rotate(-180 800.25 64.25)" fill="#F9FAFC" stroke="#EAEAEA" stroke-width="0.5"/>
<rect x="736.25" y="64.25" width="64.5" height="64.5" transform="rotate(-180 736.25 64.25)" fill="#F9FAFC"/>
<rect x="736.25" y="64.25" width="64.5" height="64.5" transform="rotate(-180 736.25 64.25)" fill="url(#paint7_radial_1_367)"/>
<rect x="736.25" y="64.25" width="64.5" height="64.5" transform="rotate(-180 736.25 64.25)" stroke="#EAEAEA" stroke-width="0.5"/>
<rect x="672.25" y="64.25" width="64.5" height="64.5" transform="rotate(-180 672.25 64.25)" fill="#F9FAFC" stroke="#EAEAEA" stroke-width="0.5"/>
<rect x="608.25" y="64.25" width="64.5" height="64.5" transform="rotate(-180 608.25 64.25)" fill="#F9FAFC" stroke="#EAEAEA" stroke-width="0.5"/>
<rect x="544.25" y="64.25" width="64.5" height="64.5" transform="rotate(-180 544.25 64.25)" fill="#F9FAFC" stroke="#EAEAEA" stroke-width="0.5"/>
<rect x="480.25" y="64.25" width="64.5" height="64.5" transform="rotate(-180 480.25 64.25)" fill="#F9FAFC" stroke="#EAEAEA" stroke-width="0.5"/>
<rect x="416.25" y="64.25" width="64.5" height="64.5" transform="rotate(-180 416.25 64.25)" fill="#F9FAFC"/>
<rect x="416.25" y="64.25" width="64.5" height="64.5" transform="rotate(-180 416.25 64.25)" fill="#137547" fill-opacity="0.05"/>
<rect x="416.25" y="64.25" width="64.5" height="64.5" transform="rotate(-180 416.25 64.25)" stroke="#EAEAEA" stroke-width="0.5"/>
<rect x="352.25" y="64.25" width="64.5" height="64.5" transform="rotate(-180 352.25 64.25)" fill="#F9FAFC" stroke="#EAEAEA" stroke-width="0.5"/>
<rect x="288.25" y="64.25" width="64.5" height="64.5" transform="rotate(-180 288.25 64.25)" fill="#F9FAFC" stroke="#EAEAEA" stroke-width="0.5"/>
<rect x="224.25" y="64.25" width="64.5" height="64.5" transform="rotate(-180 224.25 64.25)" fill="#F9FAFC" stroke="#EAEAEA" stroke-width="0.5"/>
<rect x="160.25" y="64.25" width="64.5" height="64.5" transform="rotate(-180 160.25 64.25)" fill="#F9FAFC" stroke="#EAEAEA" stroke-width="0.5"/>
<rect x="96.25" y="64.25" width="64.5" height="64.5" transform="rotate(-180 96.25 64.25)" fill="#F9FAFC" stroke="#EAEAEA" stroke-width="0.5"/>
<rect x="32.25" y="64.25" width="64.5" height="64.5" transform="rotate(-180 32.25 64.25)" fill="#F9FAFC" stroke="#EAEAEA" stroke-width="0.5"/>
</g>
</g>
<defs>
<linearGradient id="paint0_linear_1_367" x1="2160" y1="512" x2="2160" y2="1024" gradientUnits="userSpaceOnUse">
<stop stop-color="#D9D9D9" stop-opacity="0"/>
<stop offset="1" stop-color="#D9D9D9"/>
</linearGradient>
<radialGradient id="paint1_radial_1_367" cx="0" cy="0" r="1" gradientUnits="userSpaceOnUse" gradientTransform="translate(1248 320) rotate(45) scale(90.5097)">
<stop stop-color="#37B16F" stop-opacity="0.15"/>
<stop offset="1" stop-color="#37B16F" stop-opacity="0"/>
</radialGradient>
<radialGradient id="paint2_radial_1_367" cx="0" cy="0" r="1" gradientUnits="userSpaceOnUse" gradientTransform="translate(416 320) rotate(45) scale(90.5097)">
<stop stop-color="#37B16F" stop-opacity="0.15"/>
<stop offset="1" stop-color="#37B16F" stop-opacity="0"/>
</radialGradient>
<radialGradient id="paint3_radial_1_367" cx="0" cy="0" r="1" gradientUnits="userSpaceOnUse" gradientTransform="translate(32 320) rotate(45) scale(90.5097)">
<stop stop-color="#37B16F" stop-opacity="0.15"/>
<stop offset="1" stop-color="#37B16F" stop-opacity="0"/>
</radialGradient>
<radialGradient id="paint4_radial_1_367" cx="0" cy="0" r="1" gradientUnits="userSpaceOnUse" gradientTransform="translate(1312 192) rotate(45) scale(90.5097)">
<stop stop-color="#37B16F" stop-opacity="0.15"/>
<stop offset="1" stop-color="#37B16F" stop-opacity="0"/>
</radialGradient>
<radialGradient id="paint5_radial_1_367" cx="0" cy="0" r="1" gradientUnits="userSpaceOnUse" gradientTransform="translate(928 128) rotate(45) scale(90.5097)">
<stop stop-color="#37B16F" stop-opacity="0.15"/>
<stop offset="1" stop-color="#37B16F" stop-opacity="0"/>
</radialGradient>
<radialGradient id="paint6_radial_1_367" cx="0" cy="0" r="1" gradientUnits="userSpaceOnUse" gradientTransform="translate(96 128) rotate(45) scale(90.5097)">
<stop stop-color="#37B16F" stop-opacity="0.15"/>
<stop offset="1" stop-color="#37B16F" stop-opacity="0"/>
</radialGradient>
<radialGradient id="paint7_radial_1_367" cx="0" cy="0" r="1" gradientUnits="userSpaceOnUse" gradientTransform="translate(736 64) rotate(45) scale(90.5097)">
<stop stop-color="#37B16F" stop-opacity="0.15"/>
<stop offset="1" stop-color="#37B16F" stop-opacity="0"/>
</radialGradient>
<clipPath id="clip0_1_367">
<rect width="1536" height="512" fill="white" transform="matrix(-1 0 0 -1 1440 512)"/>
</clipPath>
</defs>
</svg>
