<svg width="172" height="24" viewBox="0 0 172 24" fill="none" xmlns="http://www.w3.org/2000/svg">
<path d="M29.6622 18.0923V6.11692e-06H33.0164V18.0923H29.6622Z" fill="#12121C"/>
<path d="M24.0454 11.8154V18.0923H27.4489V10.6338C27.4489 10.4123 27.4325 10.0595 27.3996 9.57538C27.3667 9.09128 27.2722 8.55795 27.116 7.97539C26.9598 7.38462 26.6967 6.81846 26.3267 6.27692C25.965 5.73539 25.4553 5.28821 24.7976 4.93539C24.1399 4.58257 23.2891 4.40616 22.245 4.40616C20.9378 4.40616 19.8527 4.68923 18.9895 5.25539C18.5891 5.52051 18.2356 5.82431 17.9289 6.16681V4.8H14.9447V18.0923H18.3482V11.3477C18.3482 10.519 18.4386 9.85436 18.6195 9.35385C18.8086 8.85333 19.047 8.4759 19.3347 8.22154C19.6225 7.95897 19.9308 7.78256 20.2596 7.69231C20.5884 7.60205 20.8967 7.55692 21.1845 7.55692C21.8997 7.55692 22.4505 7.71692 22.8369 8.03692C23.2315 8.35692 23.5151 8.75487 23.6878 9.23077C23.8604 9.70666 23.9632 10.1826 23.9961 10.6585C24.029 11.1262 24.0454 11.5118 24.0454 11.8154Z" fill="#12121C"/>
<path fill-rule="evenodd" clip-rule="evenodd" d="M3.20621 17.5631C4.21739 18.162 5.393 18.4615 6.73303 18.4615C8.06484 18.4615 9.23634 18.1661 10.2475 17.5754C11.2669 16.9764 12.0603 16.1518 12.6275 15.1015C13.203 14.0431 13.4907 12.8246 13.4907 11.4462C13.4907 10.0759 13.2071 8.86564 12.6399 7.81538C12.0726 6.75692 11.2793 5.92821 10.2599 5.32923C9.24867 4.73026 8.07306 4.43077 6.73303 4.43077C5.41767 4.43077 4.25439 4.72616 3.2432 5.31692C2.23201 5.90769 1.43868 6.73231 0.863209 7.79077C0.287737 8.84103 0 10.0595 0 11.4462C0 12.8164 0.279515 14.0308 0.838546 15.0892C1.4058 16.1395 2.19502 16.9641 3.20621 17.5631ZM9.13769 14.2523C8.61154 14.9744 7.80999 15.3354 6.73303 15.3354C5.68896 15.3354 4.89563 14.9867 4.35304 14.2892C3.81867 13.5836 3.55149 12.6359 3.55149 11.4462C3.55149 10.6749 3.66247 9.99795 3.88444 9.41538C4.11463 8.83282 4.46403 8.37743 4.93263 8.04923C5.40122 7.72103 6.00136 7.55692 6.73303 7.55692C7.79355 7.55692 8.59099 7.90974 9.12536 8.61538C9.66795 9.32102 9.93924 10.2646 9.93924 11.4462C9.93924 12.5867 9.67206 13.522 9.13769 14.2523Z" fill="#12121C"/>
<path d="M39.3726 17.9876L37.182 24H40.2895L47.8118 4.8H44.4576L40.9788 13.8449L37.4779 4.8H34.0004L39.3726 17.9876Z" fill="#12121C"/>
<path d="M43.8397 24L45 20.8738H46.9316C47.6962 20.8738 48.2182 20.7015 48.4977 20.3569C48.7855 20.0123 48.9293 19.52 48.9293 18.88V4.8H52.2835V20.5046C52.2835 21.5631 51.9506 22.4082 51.2847 23.04C50.627 23.68 49.735 24 48.6087 24H43.8397Z" fill="#12121C"/>
<path fill-rule="evenodd" clip-rule="evenodd" d="M56.9641 17.5631C57.9753 18.162 59.1509 18.4615 60.4909 18.4615C61.8228 18.4615 62.9942 18.1661 64.0054 17.5754C65.0248 16.9764 65.8182 16.1518 66.3854 15.1015C66.9609 14.0431 67.2486 12.8246 67.2486 11.4462C67.2486 10.0759 66.965 8.86564 66.3978 7.81538C65.8305 6.75692 65.0372 5.92821 64.0178 5.32923C63.0066 4.73026 61.831 4.43077 60.4909 4.43077C59.1756 4.43077 58.0123 4.72616 57.0011 5.31692C55.9899 5.90769 55.1966 6.73231 54.6211 7.79077C54.0456 8.84103 53.7579 10.0595 53.7579 11.4462C53.7579 12.8164 54.0374 14.0308 54.5965 15.0892C55.1637 16.1395 55.9529 16.9641 56.9641 17.5631ZM62.8956 14.2523C62.3695 14.9744 61.5679 15.3354 60.4909 15.3354C59.4469 15.3354 58.6535 14.9867 58.111 14.2892C57.5766 13.5836 57.3094 12.6359 57.3094 11.4462C57.3094 10.6749 57.4204 9.99795 57.6423 9.41538C57.8725 8.83282 58.2219 8.37743 58.6905 8.04923C59.1591 7.72103 59.7593 7.55692 60.4909 7.55692C61.5515 7.55692 62.3489 7.90974 62.8833 8.61538C63.4259 9.32102 63.6971 10.2646 63.6971 11.4462C63.6971 12.5867 63.43 13.522 62.8956 14.2523Z" fill="#12121C"/>
<path fill-rule="evenodd" clip-rule="evenodd" d="M75.263 18.4615C73.9394 18.4615 72.8337 18.1538 71.9458 17.5385C71.8487 17.4711 71.7541 17.4011 71.6622 17.3285V18.0923H68.7026V6.11692e-06H72.0815V5.22867C72.9103 4.69674 73.9133 4.43077 75.0904 4.43077C76.3646 4.43077 77.4745 4.73436 78.4199 5.34154C79.3653 5.94872 80.097 6.78154 80.6149 7.84C81.141 8.89026 81.4041 10.0923 81.4041 11.4462C81.4041 12.7754 81.1452 13.9692 80.6272 15.0277C80.1175 16.0861 79.4023 16.9231 78.4815 17.5385C77.5608 18.1538 76.4879 18.4615 75.263 18.4615ZM71.9581 9.32923C71.7608 9.93641 71.6622 10.642 71.6622 11.4462C71.6622 12.2503 71.7608 12.9559 71.9581 13.5631C72.1554 14.1703 72.4761 14.642 72.92 14.9785C73.3722 15.3149 73.9723 15.4831 74.7204 15.4831C75.4439 15.4831 76.0358 15.3026 76.4962 14.9415C76.9565 14.5805 77.2977 14.0964 77.5197 13.4892C77.7416 12.8738 77.8526 12.1928 77.8526 11.4462C77.8526 10.7077 77.7375 10.0349 77.5073 9.42769C77.2772 8.81231 76.9195 8.3241 76.4345 7.96308C75.9577 7.59385 75.3452 7.40923 74.5971 7.40923C73.8983 7.40923 73.3311 7.57744 72.8953 7.91385C72.4678 8.25026 72.1554 8.72205 71.9581 9.32923Z" fill="#12121C"/>
<path d="M83.6577 17.3292C84.6936 18.0841 86.05 18.4615 87.7271 18.4615C89.47 18.4615 90.8347 18.0718 91.8212 17.2923C92.8077 16.5128 93.301 15.442 93.301 14.08C93.301 13.3908 93.1612 12.8041 92.8817 12.32C92.6022 11.8277 92.1542 11.4092 91.5376 11.0646C90.9292 10.7118 90.1194 10.4041 89.1083 10.1415C88.0724 9.87897 87.2996 9.66564 86.7899 9.50154C86.2884 9.33744 85.9555 9.17743 85.7911 9.02154C85.6349 8.86564 85.5568 8.67282 85.5568 8.44308C85.5568 8.05744 85.7417 7.76205 86.1117 7.55692C86.4898 7.3518 86.9872 7.26974 87.6038 7.31077C88.2368 7.36 88.7383 7.52821 89.1083 7.81538C89.4782 8.10256 89.692 8.49231 89.7495 8.98462L93.2499 9C93.1348 8.1959 92.7543 6.86769 92.2528 6.27692C91.7595 5.68616 91.1101 5.23077 90.3044 4.91077C89.4988 4.59077 88.5739 4.43077 87.5298 4.43077C86.4529 4.43077 85.5157 4.60308 84.7182 4.94769C83.929 5.2841 83.3165 5.76821 82.8808 6.4C82.4451 7.02359 82.2272 7.76205 82.2272 8.61538C82.2272 9.29641 82.3711 9.87897 82.6589 10.3631C82.9466 10.839 83.4152 11.2492 84.0646 11.5938C84.7141 11.9385 85.5814 12.2503 86.6666 12.5292C87.6285 12.7836 88.3355 12.9887 88.7876 13.1446C89.248 13.3005 89.544 13.4605 89.6755 13.6246C89.807 13.7805 89.8728 13.9897 89.8728 14.2523C89.8728 14.6708 89.7084 14.999 89.3795 15.2369C89.0507 15.4667 88.5821 15.5815 87.9738 15.5815C87.2339 15.5815 86.6214 15.4051 86.1363 15.0523C85.6595 14.6995 85.3512 14.2113 85.2115 13.5877H81.7499C81.9719 14.9744 82.6301 16.5661 83.6577 17.3292Z" fill="#12121C"/>
<path d="M101.191 4.8H104.545V18.0923H101.191V4.8Z" fill="#12121C"/>
<path d="M112.287 18.3138C113.175 18.3385 114.079 18.2646 115 18.0923V15.3108C114.211 15.4174 113.491 15.4503 112.842 15.4092C112.192 15.3682 111.72 15.1138 111.424 14.6461C111.268 14.4 111.181 14.0718 111.165 13.6615C111.157 13.2431 111.152 12.7754 111.152 12.2585V7.38462H115V4.8H111.152V0H107.798V4.8H105.529V7.38462H107.798V12.4554C107.798 13.2513 107.807 13.9651 107.823 14.5969C107.839 15.2205 108.012 15.8359 108.341 16.4431C108.703 17.0913 109.229 17.5631 109.919 17.8585C110.618 18.1456 111.407 18.2974 112.287 18.3138Z" fill="#12121C"/>
<path d="M48.9293 6.11692e-06V3.45385H52.2835V6.11692e-06H48.9293Z" fill="#12121C"/>
<path d="M101.191 6.11692e-06V3.45385H104.545V6.11692e-06H101.191Z" fill="#12121C"/>
<path d="M95.3203 18.0923V14.7446H98.6745V18.0923H95.3203Z" fill="#137547"/>
<path d="M127 8V16" stroke="#EAEAEA"/>
<path d="M144.776 17.096C144.403 17.096 144.067 17.0533 143.768 16.968C143.469 16.8827 143.197 16.7707 142.952 16.632C142.717 16.4933 142.493 16.344 142.28 16.184L141.896 17H139.912V4.792H142.28V9C142.621 8.81867 143.005 8.65333 143.432 8.504C143.859 8.35467 144.269 8.28 144.664 8.28C145.4 8.28 145.987 8.43467 146.424 8.744C146.872 9.05333 147.197 9.53867 147.4 10.2C147.603 10.8507 147.704 11.7147 147.704 12.792C147.704 13.752 147.597 14.552 147.384 15.192C147.181 15.832 146.861 16.312 146.424 16.632C145.997 16.9413 145.448 17.096 144.776 17.096ZM143.896 15.16C144.173 15.16 144.419 15.0907 144.632 14.952C144.856 14.8027 145.027 14.5467 145.144 14.184C145.272 13.8213 145.336 13.32 145.336 12.68C145.336 11.9333 145.267 11.3893 145.128 11.048C145 10.696 144.824 10.4667 144.6 10.36C144.387 10.2427 144.152 10.184 143.896 10.184C143.576 10.184 143.277 10.2373 143 10.344C142.733 10.44 142.493 10.5467 142.28 10.664V14.744C142.483 14.8507 142.712 14.9467 142.968 15.032C143.235 15.1173 143.544 15.16 143.896 15.16ZM151.959 17.032C151.351 17.032 150.845 16.936 150.439 16.744C150.045 16.5413 149.751 16.2373 149.559 15.832C149.367 15.416 149.271 14.8827 149.271 14.232V4.792H151.639V13.88C151.639 14.2 151.671 14.456 151.735 14.648C151.799 14.8293 151.895 14.9627 152.023 15.048C152.162 15.1333 152.333 15.192 152.535 15.224L153.191 15.32V17.032H151.959ZM157.967 17.08C157.263 17.08 156.66 17.0107 156.159 16.872C155.658 16.7227 155.247 16.4773 154.927 16.136C154.618 15.7947 154.388 15.3413 154.239 14.776C154.1 14.2107 154.031 13.512 154.031 12.68C154.031 11.8053 154.1 11.0853 154.239 10.52C154.388 9.944 154.618 9.496 154.927 9.176C155.247 8.84533 155.658 8.616 156.159 8.488C156.671 8.34933 157.274 8.28 157.967 8.28C158.682 8.28 159.29 8.34933 159.791 8.488C160.292 8.62667 160.698 8.86133 161.007 9.192C161.327 9.512 161.556 9.96 161.695 10.536C161.844 11.1013 161.919 11.816 161.919 12.68C161.919 13.5333 161.85 14.248 161.711 14.824C161.572 15.3893 161.348 15.8373 161.039 16.168C160.73 16.4987 160.319 16.7333 159.807 16.872C159.306 17.0107 158.692 17.08 157.967 17.08ZM157.967 15.192C158.255 15.192 158.495 15.1653 158.687 15.112C158.89 15.0587 159.05 14.952 159.167 14.792C159.295 14.6213 159.391 14.3653 159.455 14.024C159.519 13.6827 159.551 13.2347 159.551 12.68C159.551 12.1147 159.519 11.6667 159.455 11.336C159.391 10.9947 159.295 10.744 159.167 10.584C159.05 10.4133 158.89 10.3013 158.687 10.248C158.495 10.1947 158.255 10.168 157.967 10.168C157.69 10.168 157.45 10.1947 157.247 10.248C157.055 10.3013 156.895 10.4133 156.767 10.584C156.639 10.744 156.543 10.9947 156.479 11.336C156.426 11.6667 156.399 12.1147 156.399 12.68C156.399 13.2347 156.426 13.6827 156.479 14.024C156.543 14.3653 156.639 14.6213 156.767 14.792C156.895 14.952 157.055 15.0587 157.247 15.112C157.45 15.1653 157.69 15.192 157.967 15.192ZM165.714 20.968C165.17 20.968 164.685 20.888 164.258 20.728C163.842 20.568 163.511 20.3333 163.266 20.024C163.021 19.7253 162.898 19.352 162.898 18.904V18.648C162.898 18.1893 163.026 17.7947 163.282 17.464C163.549 17.144 163.89 16.8987 164.306 16.728C164.722 16.5573 165.165 16.472 165.634 16.472L166.338 17.208C166.103 17.208 165.895 17.2453 165.714 17.32C165.533 17.3947 165.389 17.5013 165.282 17.64C165.186 17.7893 165.138 17.9707 165.138 18.184V18.36C165.138 18.6693 165.245 18.904 165.458 19.064C165.671 19.224 165.975 19.304 166.37 19.304H168.002C168.397 19.304 168.711 19.224 168.946 19.064C169.191 18.9147 169.314 18.6853 169.314 18.376V18.12C169.314 17.928 169.266 17.7627 169.17 17.624C169.085 17.496 168.951 17.3947 168.77 17.32C168.599 17.2453 168.365 17.208 168.066 17.208H166.162C165.202 17.208 164.487 17.032 164.018 16.68C163.559 16.3173 163.33 15.8747 163.33 15.352C163.33 14.9147 163.453 14.552 163.698 14.264C163.954 13.9653 164.306 13.768 164.754 13.672C164.413 13.4907 164.141 13.272 163.938 13.016C163.735 12.7493 163.591 12.4667 163.506 12.168C163.421 11.8587 163.378 11.5387 163.378 11.208C163.378 10.5787 163.506 10.056 163.762 9.64C164.029 9.224 164.423 8.91467 164.946 8.712C165.479 8.50933 166.146 8.408 166.946 8.408H171.602V9.704L170.29 9.944C170.386 10.0507 170.482 10.1787 170.578 10.328C170.674 10.4667 170.754 10.6533 170.818 10.888C170.893 11.112 170.93 11.3947 170.93 11.736C170.93 12.2267 170.823 12.6693 170.61 13.064C170.407 13.4587 170.077 13.7733 169.618 14.008C169.17 14.2427 168.573 14.36 167.826 14.36H166.306C166.018 14.36 165.783 14.4027 165.602 14.488C165.421 14.5733 165.33 14.728 165.33 14.952C165.33 15.1333 165.405 15.2613 165.554 15.336C165.714 15.4 165.89 15.432 166.082 15.432H168.45C169.111 15.432 169.671 15.5173 170.13 15.688C170.589 15.8587 170.941 16.136 171.186 16.52C171.431 16.8933 171.554 17.3893 171.554 18.008V18.248C171.554 19.0907 171.287 19.752 170.754 20.232C170.221 20.7227 169.399 20.968 168.29 20.968H165.714ZM166.642 12.584H167.554C167.885 12.584 168.135 12.536 168.306 12.44C168.487 12.3333 168.61 12.1947 168.674 12.024C168.749 11.8427 168.786 11.6347 168.786 11.4C168.786 11.1013 168.738 10.8613 168.642 10.68C168.557 10.4987 168.429 10.3707 168.258 10.296C168.087 10.2213 167.874 10.184 167.618 10.184H166.722C166.317 10.184 166.013 10.2747 165.81 10.456C165.607 10.6267 165.506 10.9307 165.506 11.368C165.506 11.784 165.602 12.0933 165.794 12.296C165.986 12.488 166.269 12.584 166.642 12.584Z" fill="#12121C"/>
</svg>
