<svg width="116" height="24" viewBox="0 0 116 24" fill="none" xmlns="http://www.w3.org/2000/svg">
<path d="M30.1622 18.0923V6.11692e-06H33.5164V18.0923H30.1622Z" fill="#12121C"/>
<path d="M24.5454 11.8154V18.0923H27.9489V10.6338C27.9489 10.4123 27.9325 10.0595 27.8996 9.57538C27.8667 9.09128 27.7722 8.55795 27.616 7.97539C27.4598 7.38462 27.1967 6.81846 26.8267 6.27692C26.465 5.73539 25.9553 5.28821 25.2976 4.93539C24.6399 4.58257 23.7891 4.40616 22.745 4.40616C21.4378 4.40616 20.3527 4.68923 19.4895 5.25539C19.0891 5.52051 18.7356 5.82431 18.4289 6.16681V4.8H15.4447V18.0923H18.8482V11.3477C18.8482 10.519 18.9386 9.85436 19.1195 9.35385C19.3086 8.85333 19.547 8.4759 19.8347 8.22154C20.1225 7.95897 20.4308 7.78256 20.7596 7.69231C21.0884 7.60205 21.3967 7.55692 21.6845 7.55692C22.3997 7.55692 22.9505 7.71692 23.3369 8.03692C23.7315 8.35692 24.0151 8.75487 24.1878 9.23077C24.3604 9.70666 24.4632 10.1826 24.4961 10.6585C24.529 11.1262 24.5454 11.5118 24.5454 11.8154Z" fill="#12121C"/>
<path fill-rule="evenodd" clip-rule="evenodd" d="M3.70621 17.5631C4.71739 18.162 5.893 18.4615 7.23303 18.4615C8.56484 18.4615 9.73634 18.1661 10.7475 17.5754C11.7669 16.9764 12.5603 16.1518 13.1275 15.1015C13.703 14.0431 13.9907 12.8246 13.9907 11.4462C13.9907 10.0759 13.7071 8.86564 13.1399 7.81538C12.5726 6.75692 11.7793 5.92821 10.7599 5.32923C9.74867 4.73026 8.57306 4.43077 7.23303 4.43077C5.91767 4.43077 4.75439 4.72616 3.7432 5.31692C2.73201 5.90769 1.93868 6.73231 1.36321 7.79077C0.787737 8.84103 0.5 10.0595 0.5 11.4462C0.5 12.8164 0.779515 14.0308 1.33855 15.0892C1.9058 16.1395 2.69502 16.9641 3.70621 17.5631ZM9.63769 14.2523C9.11154 14.9744 8.30999 15.3354 7.23303 15.3354C6.18896 15.3354 5.39563 14.9867 4.85304 14.2892C4.31867 13.5836 4.05149 12.6359 4.05149 11.4462C4.05149 10.6749 4.16247 9.99795 4.38444 9.41538C4.61463 8.83282 4.96403 8.37743 5.43263 8.04923C5.90122 7.72102 6.50136 7.55692 7.23303 7.55692C8.29355 7.55692 9.09099 7.90974 9.62536 8.61538C10.1679 9.32102 10.4392 10.2646 10.4392 11.4462C10.4392 12.5867 10.1721 13.522 9.63769 14.2523Z" fill="#12121C"/>
<path d="M39.8726 17.9876L37.682 24H40.7895L48.3118 4.8H44.9576L41.4788 13.8449L37.9779 4.8H34.5004L39.8726 17.9876Z" fill="#12121C"/>
<path d="M44.3397 24L45.5 20.8738H47.4316C48.1962 20.8738 48.7182 20.7015 48.9977 20.3569C49.2855 20.0123 49.4293 19.52 49.4293 18.88V4.8H52.7835V20.5046C52.7835 21.5631 52.4506 22.4082 51.7847 23.04C51.127 23.68 50.235 24 49.1087 24H44.3397Z" fill="#12121C"/>
<path fill-rule="evenodd" clip-rule="evenodd" d="M57.4641 17.5631C58.4753 18.162 59.6509 18.4615 60.9909 18.4615C62.3228 18.4615 63.4942 18.1661 64.5054 17.5754C65.5248 16.9764 66.3182 16.1518 66.8854 15.1015C67.4609 14.0431 67.7486 12.8246 67.7486 11.4462C67.7486 10.0759 67.465 8.86564 66.8978 7.81538C66.3305 6.75692 65.5372 5.92821 64.5178 5.32923C63.5066 4.73026 62.331 4.43077 60.9909 4.43077C59.6756 4.43077 58.5123 4.72616 57.5011 5.31692C56.4899 5.90769 55.6966 6.73231 55.1211 7.79077C54.5456 8.84103 54.2579 10.0595 54.2579 11.4462C54.2579 12.8164 54.5374 14.0308 55.0965 15.0892C55.6637 16.1395 56.4529 16.9641 57.4641 17.5631ZM63.3956 14.2523C62.8694 14.9744 62.0679 15.3354 60.9909 15.3354C59.9469 15.3354 59.1535 14.9867 58.611 14.2892C58.0766 13.5836 57.8094 12.6359 57.8094 11.4462C57.8094 10.6749 57.9204 9.99795 58.1423 9.41538C58.3725 8.83282 58.7219 8.37743 59.1905 8.04923C59.6591 7.72102 60.2593 7.55692 60.9909 7.55692C62.0515 7.55692 62.8489 7.90974 63.3833 8.61538C63.9258 9.32102 64.1971 10.2646 64.1971 11.4462C64.1971 12.5867 63.93 13.522 63.3956 14.2523Z" fill="#12121C"/>
<path fill-rule="evenodd" clip-rule="evenodd" d="M75.763 18.4615C74.4394 18.4615 73.3337 18.1538 72.4458 17.5385C72.3487 17.4711 72.2541 17.4011 72.1622 17.3285V18.0923H69.2026V6.11692e-06H72.5815V5.22867C73.4103 4.69674 74.4133 4.43077 75.5904 4.43077C76.8646 4.43077 77.9745 4.73436 78.9199 5.34154C79.8653 5.94872 80.597 6.78154 81.1149 7.84C81.641 8.89026 81.9041 10.0923 81.9041 11.4462C81.9041 12.7754 81.6452 13.9692 81.1272 15.0277C80.6175 16.0861 79.9023 16.9231 78.9815 17.5385C78.0608 18.1538 76.9879 18.4615 75.763 18.4615ZM72.4581 9.32923C72.2608 9.93641 72.1622 10.642 72.1622 11.4462C72.1622 12.2503 72.2608 12.9559 72.4581 13.5631C72.6554 14.1703 72.9761 14.642 73.42 14.9785C73.8722 15.3149 74.4723 15.4831 75.2204 15.4831C75.9439 15.4831 76.5358 15.3026 76.9962 14.9415C77.4565 14.5805 77.7977 14.0964 78.0197 13.4892C78.2416 12.8738 78.3526 12.1928 78.3526 11.4462C78.3526 10.7077 78.2375 10.0349 78.0073 9.42769C77.7772 8.81231 77.4195 8.3241 76.9345 7.96308C76.4577 7.59385 75.8452 7.40923 75.0971 7.40923C74.3983 7.40923 73.8311 7.57744 73.3953 7.91385C72.9678 8.25026 72.6554 8.72205 72.4581 9.32923Z" fill="#12121C"/>
<path d="M84.1577 17.3292C85.1936 18.0841 86.55 18.4615 88.2271 18.4615C89.97 18.4615 91.3347 18.0718 92.3212 17.2923C93.3077 16.5128 93.801 15.442 93.801 14.08C93.801 13.3908 93.6612 12.8041 93.3817 12.32C93.1022 11.8277 92.6542 11.4092 92.0376 11.0646C91.4292 10.7118 90.6194 10.4041 89.6083 10.1415C88.5724 9.87897 87.7996 9.66564 87.2899 9.50154C86.7884 9.33744 86.4555 9.17743 86.2911 9.02154C86.1349 8.86564 86.0568 8.67282 86.0568 8.44308C86.0568 8.05744 86.2417 7.76205 86.6117 7.55692C86.9899 7.3518 87.4872 7.26974 88.1038 7.31077C88.7368 7.36 89.2383 7.52821 89.6083 7.81538C89.9782 8.10256 90.1919 8.49231 90.2495 8.98462L93.7499 9C93.6348 8.1959 93.2543 6.86769 92.7528 6.27692C92.2595 5.68616 91.6101 5.23077 90.8044 4.91077C89.9988 4.59077 89.0739 4.43077 88.0298 4.43077C86.9529 4.43077 86.0157 4.60308 85.2182 4.94769C84.429 5.2841 83.8165 5.76821 83.3808 6.4C82.9451 7.02359 82.7272 7.76205 82.7272 8.61538C82.7272 9.29641 82.8711 9.87897 83.1589 10.3631C83.4466 10.839 83.9152 11.2492 84.5647 11.5938C85.2141 11.9385 86.0814 12.2503 87.1666 12.5292C88.1285 12.7836 88.8355 12.9887 89.2876 13.1446C89.748 13.3005 90.044 13.4605 90.1755 13.6246C90.307 13.7805 90.3728 13.9897 90.3728 14.2523C90.3728 14.6708 90.2084 14.999 89.8795 15.2369C89.5507 15.4667 89.0821 15.5815 88.4738 15.5815C87.7339 15.5815 87.1214 15.4051 86.6364 15.0523C86.1595 14.6995 85.8512 14.2113 85.7115 13.5877H82.2499C82.4719 14.9744 83.1301 16.5661 84.1577 17.3292Z" fill="#12121C"/>
<path d="M101.691 4.8H105.045V18.0923H101.691V4.8Z" fill="#12121C"/>
<path d="M112.787 18.3138C113.675 18.3385 114.579 18.2646 115.5 18.0923V15.3108C114.711 15.4174 113.991 15.4503 113.342 15.4092C112.692 15.3682 112.22 15.1138 111.924 14.6461C111.768 14.4 111.681 14.0718 111.665 13.6615C111.657 13.2431 111.652 12.7754 111.652 12.2585V7.38462H115.5V4.8H111.652V0H108.298V4.8H106.029V7.38462H108.298V12.4554C108.298 13.2513 108.307 13.9651 108.323 14.5969C108.339 15.2205 108.512 15.8359 108.841 16.4431C109.203 17.0913 109.729 17.5631 110.419 17.8585C111.118 18.1456 111.907 18.2974 112.787 18.3138Z" fill="#12121C"/>
<path d="M49.4293 6.11692e-06V3.45385H52.7835V6.11692e-06H49.4293Z" fill="#12121C"/>
<path d="M101.691 6.11692e-06V3.45385H105.045V6.11692e-06H101.691Z" fill="#12121C"/>
<path d="M95.8203 18.0923V14.7446H99.1745V18.0923H95.8203Z" fill="#137547"/>
</svg>
